<svg width="14" height="14" viewBox="0 0 14 14" fill="none" xmlns="http://www.w3.org/2000/svg"><path d="M13.437 7a.125.125 0 0 1 .125.128A6.563 6.563 0 0 1 1.833 11.04l-.881.69a.125.125 0 0 1-.202-.099l.01-2.828a.125.125 0 0 1 .156-.12l2.745.672a.125.125 0 0 1 .047.22l-.94.735a5.375 5.375 0 0 0 9.607-3.188A.125.125 0 0 1 12.5 7h.937ZM6.997.438a6.563 6.563 0 0 1 5.17 2.523l.882-.69a.125.125 0 0 1 .201.1l-.013 2.826a.125.125 0 0 1-.154.12l-2.745-.671a.125.125 0 0 1-.047-.221l.94-.734A5.375 5.375 0 0 0 1.625 6.878.125.125 0 0 1 1.5 7H.562a.125.125 0 0 1-.125-.127A6.563 6.563 0 0 1 6.997.438Z" fill="#000" fill-opacity=".45"/></svg>
